<?xml version="1.0" encoding="utf-8"?>
<!-- Generator: Adobe Illustrator 15.0.0, SVG Export Plug-In . SVG Version: 6.00 Build 0)  -->
<!DOCTYPE svg PUBLIC "-//W3C//DTD SVG 1.1//EN" "http://www.w3.org/Graphics/SVG/1.1/DTD/svg11.dtd">
<svg version="1.1" id="Ebene_1" xmlns="http://www.w3.org/2000/svg" xmlns:xlink="http://www.w3.org/1999/xlink" x="0px" y="0px"
	 width="168px" height="117.035px" viewBox="0 0 168 117.035" enable-background="new 0 0 168 117.035" xml:space="preserve">
<path fill="none" stroke="#183F4F" stroke-width="2.378" stroke-linecap="round" stroke-linejoin="round" stroke-miterlimit="10" d="
	M24.453,109.979c3.842-5.438,2.385-13.211-0.489-18.737c-2.444-4.701-3.291-7.157-0.504-11.766c1.517-2.508,3.25-4.901,5.05-7.213
	l-10.305,0.028l11.587-4.339l-13.326-1.676l16.346-6.041c0,0-0.674-14.082,4.994-20.214c5.146-5.568,7.917-13.539,6.793-21.162
	c-1.202-8.154-7.458-14.43-15.454-16.371c-1.6-0.388-3.224-0.574-4.838-0.57h0.292c-1.614-0.004-3.238,0.182-4.838,0.57
	C11.765,4.43,5.509,10.706,4.307,18.859C3.183,26.482,5.954,34.454,11.1,40.021c5.668,6.132,4.994,20.214,4.994,20.214h7.399"/>
<path fill="none" stroke="#183F4F" stroke-width="0.471" stroke-linecap="round" stroke-linejoin="round" stroke-miterlimit="10" d="
	M34.138,24.393c0-2.317-1.878-4.195-4.195-4.195c-1.569,0-3.053,0.989-3.764,2.371c-0.393,0.764-0.472,1.497-0.344,2.203
	c0.34,1.877,3.153,1.609,3.15-0.299c-0.001-0.666-0.164-1.324-0.461-1.917c-0.674-1.348-2.041-2.358-3.764-2.358h-0.021
	c-1.534,0-3.024,0.954-3.753,2.289c-0.385,0.703-0.484,1.396-0.394,2.073c0.264,1.976,3.26,1.713,3.175-0.279
	c-0.027-0.647-0.202-1.285-0.502-1.856c-0.607-1.154-1.726-2.039-3.184-2.2c-2.53-0.28-4.672,1.694-4.672,4.168"/>
<path fill="#183F4F" d="M25.073,107.028c-2.578,0-4.672,2.246-4.715,5.035h9.43C29.746,109.274,27.651,107.028,25.073,107.028"/>
<path fill="#183F4F" d="M22.271,114.561L22.271,114.561c-0.571,0-1.039-0.469-1.039-1.039v-2.73c0-0.571,0.468-1.039,1.039-1.039
	s1.039,0.468,1.039,1.039v2.73C23.31,114.092,22.841,114.561,22.271,114.561"/>
<path fill="#183F4F" d="M27.842,114.632L27.842,114.632c-0.571,0-1.039-0.468-1.039-1.039v-2.729c0-0.571,0.468-1.039,1.039-1.039
	c0.571,0,1.039,0.468,1.039,1.039v2.729C28.881,114.164,28.413,114.632,27.842,114.632"/>
<g>
	<path fill="#3CB6AA" d="M66.353,26.05V2.458h3.36l7.526,11.936c1.715,2.765,3.115,5.25,4.201,7.666l0.105-0.035
		c-0.28-3.15-0.35-6.021-0.35-9.696V2.458h2.87V26.05h-3.08l-7.491-11.971c-1.645-2.625-3.22-5.321-4.375-7.876l-0.105,0.035
		c0.175,2.975,0.21,5.811,0.21,9.731V26.05H66.353z"/>
	<path fill="#3CB6AA" d="M101.563,14.989h-9.136v8.506h10.221v2.555H89.348V2.458h12.776v2.555h-9.696v7.456h9.136V14.989z"/>
	<path fill="#3CB6AA" d="M110.452,26.05l-5.985-23.592h3.221l2.8,11.936c0.7,2.94,1.33,5.881,1.75,8.156h0.069
		c0.386-2.345,1.121-5.146,1.926-8.191l3.15-11.901h3.186l2.87,11.971c0.665,2.8,1.295,5.601,1.646,8.086h0.07
		c0.489-2.59,1.154-5.216,1.89-8.156l3.115-11.901h3.115l-6.686,23.592h-3.186l-2.976-12.286c-0.734-3.01-1.225-5.321-1.539-7.701
		h-0.07c-0.385,2.346-0.945,4.656-1.82,7.701l-3.361,12.286H110.452z"/>
</g>
<g>
	<path fill="#3CB6AA" d="M70.833,35.043h-7.176v-2.59h17.467v2.59h-7.21v21.002h-3.081V35.043z"/>
	<path fill="#3CB6AA" d="M103.104,44.004c0,8.086-4.936,12.426-10.956,12.426c-6.266,0-10.606-4.865-10.606-12.006
		c0-7.491,4.621-12.392,10.92-12.392C98.939,32.032,103.104,36.968,103.104,44.004z M84.763,44.354c0,5.076,2.73,9.591,7.561,9.591
		c4.831,0,7.562-4.445,7.562-9.801c0-4.726-2.451-9.626-7.526-9.626S84.763,39.208,84.763,44.354z"/>
	<path fill="#3CB6AA" d="M127.219,44.004c0,8.086-4.936,12.426-10.955,12.426c-6.266,0-10.606-4.865-10.606-12.006
		c0-7.491,4.62-12.392,10.921-12.392C123.054,32.032,127.219,36.968,127.219,44.004z M108.877,44.354
		c0,5.076,2.73,9.591,7.562,9.591c4.83,0,7.561-4.445,7.561-9.801c0-4.726-2.45-9.626-7.526-9.626
		C111.397,34.518,108.877,39.208,108.877,44.354z"/>
	<path fill="#3CB6AA" d="M131.137,32.453h3.08v21.037h10.082v2.556h-13.162V32.453z"/>
	<path fill="#3CB6AA" d="M146.572,52.335c1.364,0.875,3.324,1.54,5.425,1.54c3.115,0,4.936-1.646,4.936-4.025
		c0-2.171-1.261-3.466-4.445-4.656c-3.851-1.399-6.23-3.43-6.23-6.72c0-3.675,3.045-6.406,7.63-6.406
		c2.381,0,4.166,0.56,5.182,1.155l-0.84,2.485c-0.736-0.455-2.311-1.12-4.446-1.12c-3.22,0-4.445,1.925-4.445,3.535
		c0,2.205,1.435,3.291,4.69,4.551c3.99,1.54,5.986,3.465,5.986,6.931c0,3.641-2.661,6.825-8.227,6.825c-2.275,0-4.76-0.7-6.021-1.54
		L146.572,52.335z"/>
</g>
<g>
	<path fill="#183F4F" d="M70.833,65.038h-7.176v-2.591h17.467v2.591h-7.21V86.04h-3.081V65.038z"/>
	<path fill="#183F4F" d="M103.104,73.999c0,8.086-4.936,12.426-10.956,12.426c-6.266,0-10.606-4.865-10.606-12.006
		c0-7.491,4.621-12.392,10.92-12.392C98.939,62.027,103.104,66.963,103.104,73.999z M84.763,74.349c0,5.076,2.73,9.591,7.561,9.591
		c4.831,0,7.562-4.445,7.562-9.801c0-4.726-2.451-9.626-7.526-9.626S84.763,69.203,84.763,74.349z"/>
	<path fill="#183F4F" d="M118.957,65.038h-7.176v-2.591h17.467v2.591h-7.21V86.04h-3.081V65.038z"/>
	<path fill="#183F4F" d="M131.871,62.763c1.541-0.28,3.781-0.49,5.846-0.49c3.256,0,5.391,0.63,6.826,1.926
		c1.155,1.05,1.855,2.66,1.855,4.515c0,3.081-1.961,5.146-4.41,5.986v0.104c1.785,0.63,2.869,2.311,3.43,4.761
		c0.77,3.29,1.33,5.565,1.82,6.476h-3.15c-0.385-0.7-0.91-2.695-1.54-5.636c-0.7-3.255-1.995-4.48-4.761-4.585h-2.87V86.04h-3.046
		V62.763z M134.917,73.509h3.115c3.255,0,5.321-1.785,5.321-4.48c0-3.045-2.206-4.376-5.426-4.376c-1.471,0-2.486,0.105-3.011,0.245
		V73.509z"/>
	<path fill="#183F4F" d="M155.497,86.04V76.029l-7.491-13.582h3.501l3.325,6.511c0.875,1.785,1.61,3.221,2.346,4.866h0.07
		c0.629-1.541,1.47-3.081,2.38-4.866l3.396-6.511h3.43l-7.875,13.547V86.04H155.497z"/>
</g>
<g>
	<path fill="#183F4F" d="M86.515,103.994c0,8.086-4.936,12.426-10.956,12.426c-6.266,0-10.606-4.865-10.606-12.006
		c0-7.491,4.621-12.392,10.921-12.392C82.349,92.022,86.515,96.958,86.515,103.994z M68.173,104.344c0,5.076,2.73,9.591,7.561,9.591
		c4.831,0,7.561-4.445,7.561-9.801c0-4.726-2.45-9.626-7.526-9.626C70.693,94.508,68.173,99.198,68.173,104.344z"/>
	<path fill="#183F4F" d="M93.513,92.442v14.002c0,5.25,2.345,7.49,5.495,7.49c3.466,0,5.741-2.31,5.741-7.49V92.442h3.08v13.792
		c0,7.245-3.815,10.186-8.926,10.186c-4.831,0-8.471-2.73-8.471-10.081V92.442H93.513z"/>
	<path fill="#183F4F" d="M117.592,95.033h-7.176v-2.591h17.467v2.591h-7.21v21.002h-3.081V95.033z"/>
</g>
</svg>
