<?xml version="1.0" encoding="utf-8"?>
<!-- Generator: Adobe Illustrator 15.0.0, SVG Export Plug-In . SVG Version: 6.00 Build 0)  -->
<!DOCTYPE svg PUBLIC "-//W3C//DTD SVG 1.1//EN" "http://www.w3.org/Graphics/SVG/1.1/DTD/svg11.dtd">
<svg version="1.1" id="Ebene_1" xmlns="http://www.w3.org/2000/svg" xmlns:xlink="http://www.w3.org/1999/xlink" x="0px" y="0px"
	 width="95.773px" height="44.752px" viewBox="0 0 95.773 44.752" enable-background="new 0 0 95.773 44.752" xml:space="preserve">
<path fill="#FFFFFF" d="M73.541,0c-4.389,0-8.656,1.268-12.456,3.434c-3.696,2.105-6.917,4.961-9.786,8.08
	c-1.139,1.238-2.224,2.521-3.27,3.837c-1.011,1.27-1.979,2.574-2.933,3.887c-0.485,0.668-0.967,1.338-1.45,2.009
	c-0.963,1.338-1.943,2.677-3.064,3.889c-1.036,1.119-2.1,2.211-3.194,3.273c-2.724,2.647-5.631,5.163-8.842,7.205
	c-2.539,1.614-5.509,3.152-8.592,3.152c-8.267,0-15.678-6.555-15.678-16.532c0-9.976,7.126-15.392,15.678-15.392
	c4.955,0,9.336,2.114,13.587,5.772l-2.275,2.34l5.564,1.406l5.563,1.406l-1.564-5.521l-1.564-5.521l-2.489,2.561
	c-4.349-3.89-9.754-7.004-16.537-7.004C9.121,2.28,0,10.262,0,22.519c0,11.687,9.121,20.237,19.384,20.237
	c4.246,0,8.357-1.265,12.002-3.411c3.268-1.927,6.121-4.468,8.74-7.194c0.884-0.919,1.743-1.862,2.596-2.809
	c1.105-1.229,2.143-2.448,3.069-3.843c0.407-0.612,0.814-1.226,1.221-1.838c0.749-1.127,1.441-2.244,2.244-3.34
	c1.479-2.02,3.029-3.99,4.697-5.857c2.798-3.133,5.968-6.048,9.703-8.026c2.963-1.569,6.242-2.448,9.6-2.448
	c11.688,0,18.243,8.124,18.243,18.528c0,9.692-6.271,17.673-17.103,17.673c-6.191,0-11.619-1.679-17.337-6.623l2.649-3.221
	l-5.66-0.941l-5.661-0.941l2.015,5.373l2.017,5.373l2.251-2.736c5.541,4.986,11.582,8.277,19.441,8.277
	c13.111,0,21.662-9.977,21.662-22.519C95.773,9.121,86.938,0,73.541,0"/>
</svg>
