<?xml version="1.0" encoding="utf-8"?>
<!-- Generator: Adobe Illustrator 15.0.0, SVG Export Plug-In . SVG Version: 6.00 Build 0)  -->
<!DOCTYPE svg PUBLIC "-//W3C//DTD SVG 1.1//EN" "http://www.w3.org/Graphics/SVG/1.1/DTD/svg11.dtd">
<svg version="1.1" id="Ebene_1" xmlns="http://www.w3.org/2000/svg" xmlns:xlink="http://www.w3.org/1999/xlink" x="0px" y="0px"
	 width="81.928px" height="70.953px" viewBox="0 0 81.928 70.953" enable-background="new 0 0 81.928 70.953" xml:space="preserve">
<path fill="#878787" d="M37.538,38.194c-1.448-1.801-1.15-4.629,0.641-6.084c1.352-1.095,3.158-1.25,4.627-0.57l3.018-5.324
	c-3.945-2.072-8.936-1.449-12.252,1.867c-1.722,1.723-2.715,3.894-2.984,6.138l-3.838-1.137l-6.857-2.029
	c-0.281,1.431-0.432,2.908-0.432,4.419c0,1.514,0.15,2.99,0.432,4.42l6.857-2.029l3.838-1.135c0.27,2.242,1.263,4.416,2.984,6.139
	c0.6,0.598,1.26,1.1,1.952,1.523l3.013-5.318C38.171,38.833,37.827,38.552,37.538,38.194"/>
<path fill="#3CB6AA" d="M62.036,31.056l-6.857,2.031l-3.838,1.135c-0.27-2.244-1.262-4.416-2.984-6.138
	c-0.766-0.767-1.623-1.389-2.533-1.868l-3.019,5.325c0.58,0.268,1.11,0.654,1.532,1.182c1.518,1.9,1.229,4.619-0.653,6.152
	c-1.499,1.219-3.597,1.23-5.147,0.201l-3.013,5.318c4.025,2.459,9.351,1.959,12.833-1.523c1.723-1.723,2.715-3.896,2.984-6.141
	l3.838,1.137l6.857,2.031c0.283-1.432,0.432-2.908,0.432-4.422C62.468,33.964,62.319,32.487,62.036,31.056"/>
<path fill="#878787" d="M17.798,35.476c0-12.794,10.371-23.167,23.166-23.167c4.033,0,7.824,1.032,11.125,2.844L60.675,0H20.481
	L-0.001,35.476l20.479,35.471l8.774-15.484C22.4,51.438,17.798,43.997,17.798,35.476"/>
<path fill="#3CB6AA" d="M61.446,0h-0.771l-8.586,15.153C59.265,19.09,64.13,26.714,64.13,35.476
	c0,12.795-10.371,23.168-23.166,23.168c-4.273,0-8.274-1.164-11.711-3.182l-8.774,15.484l0.004,0.006h40.964l20.482-35.477L61.446,0
	z"/>
<path fill="#3CB6AA" d="M39.576,33.769c-1.026,0.803-1.172,2.061-0.354,3.07c0.115,0.143,0.24,0.264,0.371,0.371l2.153-3.801
	C41.058,33.128,40.261,33.231,39.576,33.769"/>
<path fill="#3CB6AA" d="M41.745,33.409l-2.152,3.801c0.805,0.666,1.868,0.688,2.713,0c0.984-0.801,1.135-2.111,0.357-3.102
	C42.403,33.776,42.087,33.55,41.745,33.409"/>
</svg>
