<?xml version="1.0" encoding="utf-8"?>
<!-- Generator: Adobe Illustrator 15.0.0, SVG Export Plug-In . SVG Version: 6.00 Build 0)  -->
<!DOCTYPE svg PUBLIC "-//W3C//DTD SVG 1.1//EN" "http://www.w3.org/Graphics/SVG/1.1/DTD/svg11.dtd">
<svg version="1.1" id="Ebene_1" xmlns="http://www.w3.org/2000/svg" xmlns:xlink="http://www.w3.org/1999/xlink" x="0px" y="0px"
	 width="81.928px" height="70.953px" viewBox="0 0 81.928 70.953" enable-background="new 0 0 81.928 70.953" xml:space="preserve">
<path fill="#878787" d="M19.473,47.776c-0.709-0.346-0.955-0.727-0.947-1.512c0.043-3.928,0.021-7.857,0.021-12.002
	c6.245,2.809,12.282,5.523,18.367,8.26l5.035-8.684c-0.39,0.076-0.806,0.086-1.123-0.039c-6.897-2.734-13.771-5.522-20.65-8.299
	c-0.138-0.056-0.262-0.145-0.602-0.336c6.844-2.769,13.514-5.43,20.147-8.182c1.254-0.52,2.287-0.521,3.543,0.006
	c2.269,0.952,4.547,1.883,6.823,2.816L61.499,0.126l-0.054-0.093H20.48L-0.001,35.509l20.444,35.412l10.22-17.623
	C26.936,51.45,23.207,49.606,19.473,47.776 M19.08,26.629c7.042,3.037,14.012,6.045,21.117,9.11
	c-1.084,1.898-2.072,3.629-3.129,5.479c-6.797-3.057-13.535-6.086-20.36-9.156C17.516,30.211,18.277,28.465,19.08,26.629"/>
<path fill="#3CB6AA" d="M61.498,0.061L50.086,19.74c3.935,1.611,7.873,3.212,11.809,4.819c0.383,0.156,0.756,0.334,1.286,0.57
	c-0.451,0.218-0.751,0.383-1.065,0.511c-6.541,2.672-13.08,5.349-19.635,7.986c-0.161,0.064-0.344,0.111-0.531,0.148l-5.037,8.684
	c0.19,0.084,0.379,0.17,0.569,0.256c1.033-1.789,2.028-3.512,3.166-5.479v20.871c-0.338-0.139-0.629-0.236-0.901-0.371
	c-3.028-1.5-6.055-3.002-9.082-4.502L20.443,70.856l0.037,0.064h40.965l20.482-35.477L61.498,0.061z M63.781,26.564
	c0.793,1.806,1.561,3.556,2.381,5.429c-6.802,3.061-13.543,6.094-20.365,9.162c-1.057-1.852-2.062-3.611-3.129-5.479
	C49.75,32.62,56.723,29.611,63.781,26.564 M64.293,46.313c-0.004,0.414-0.271,1.037-0.598,1.201
	c-7.086,3.557-14.197,7.062-21.443,10.646V37.292c1.104,1.91,2.099,3.633,3.133,5.422c6.275-2.822,12.494-5.619,18.848-8.477
	c0.038,0.375,0.084,0.623,0.084,0.869C64.322,38.843,64.34,42.579,64.293,46.313"/>
</svg>
