<?xml version="1.0" encoding="utf-8"?>
<!-- Generator: Adobe Illustrator 15.0.0, SVG Export Plug-In . SVG Version: 6.00 Build 0)  -->
<!DOCTYPE svg PUBLIC "-//W3C//DTD SVG 1.1//EN" "http://www.w3.org/Graphics/SVG/1.1/DTD/svg11.dtd">
<svg version="1.1" id="Ebene_1" xmlns="http://www.w3.org/2000/svg" xmlns:xlink="http://www.w3.org/1999/xlink" x="0px" y="0px"
	 width="81.928px" height="70.953px" viewBox="0 0 81.928 70.953" enable-background="new 0 0 81.928 70.953" xml:space="preserve">
<path fill="#3CB6AA" d="M61.445,0h-0.529l-10.17,17.691c-0.674,3.251-2.467,6.04-4.322,8.804c-0.199,0.294-0.646,0.489-1.08,0.595
	l-0.598,1.041c3.15-0.064,6.303-0.061,9.451-0.003c2.447,0.045,3.326,1.17,3.266,3.945c-0.057,2.592-0.898,3.484-3.406,3.539
	c-1.494,0.033-2.992,0.006-4.488,0.006c-1.578,0-3.156,0.035-4.734-0.01c-1.885-0.051-2.797-0.674-3.117-2.209l-0.873,1.52
	c0.023,0.143,0.049,0.285,0.068,0.428c-0.264,0.233-0.502,0.473-0.725,0.715l-1.707,2.966c-0.57,2.186,0.23,4.428,2.426,6.164
	c-0.371,3.098-1.725,6.455,1.77,8.414c-0.117,2.525-0.229,4.879-0.346,7.393c-3.195,0-6.713,0.391-10.107-0.09
	c-1.918-0.273-3.631-1.061-5.049-2.207L20.305,70.65l0.174,0.303h40.967l20.482-35.476L61.445,0z M52.086,61.252
	c-0.996-0.035-1.994-0.006-2.992-0.004c-0.498,0.002-0.996,0.004-1.494,0.002c-3.537-0.01-4.762-1.543-4.018-4.947
	c0.332-1.518,1.164-2.32,2.758-2.301c1.91,0.023,3.822,0,5.732,0.008c2.578,0.01,2.895,1.809,2.861,3.762
	C54.902,59.627,54.572,61.34,52.086,61.252 M54.43,52.629c-1.578,0.035-3.158,0.006-4.736,0.006c-1.58,0-3.158,0.037-4.736-0.01
	c-2.49-0.07-3.322-0.975-3.387-3.578c-0.07-2.742,0.793-3.838,3.328-3.902c3.238-0.078,6.482-0.074,9.721,0
	c2.598,0.059,3.395,1.043,3.363,3.846C57.955,51.738,57.158,52.57,54.43,52.629 M56.541,43.959
	c-4.816,0.178-9.65,0.184-14.465-0.018c-2.57-0.107-2.367-2.346-2.35-4.184c0.018-1.785,0.637-3.112,2.721-3.12
	c2.328-0.006,4.658-0.002,6.988-0.002c2.246,0.002,4.492,0.006,6.738,0c2.012-0.004,2.822,1.128,2.844,2.999
	C59.039,41.568,59.271,43.855,56.541,43.959"/>
<path fill="#878787" d="M22.986,50.049c-0.129-4.234-0.119-8.479,0.002-12.715c0.098-3.434,1.848-5.93,4.449-8.236
	c4.455-3.949,8.865-8.048,12.635-12.626c1.818-2.208,2.137-5.651,3.238-8.833c4.488-0.62,7.684,2.161,7.73,7.261
	c0.008,0.974-0.107,1.897-0.295,2.791L60.916,0H20.48L-0.002,35.477L20.305,70.65l6.867-11.949
	C24.67,56.68,23.092,53.531,22.986,50.049"/>
<path fill="#3CB6AA" d="M40.498,32.402c0.035,0.837,0.205,1.669,0.346,2.517l0.873-1.52c-0.088-0.423-0.139-0.901-0.143-1.473
	c-0.021-2.663,0.824-3.749,3.152-3.796c0.006,0,0.012,0,0.02,0l0.598-1.04c-0.133,0.033-0.268,0.058-0.391,0.074
	C41.051,27.66,40.34,28.443,40.498,32.402"/>
</svg>
