<?xml version="1.0" encoding="utf-8"?>
<!-- Generator: Adobe Illustrator 15.0.0, SVG Export Plug-In . SVG Version: 6.00 Build 0)  -->
<!DOCTYPE svg PUBLIC "-//W3C//DTD SVG 1.1//EN" "http://www.w3.org/Graphics/SVG/1.1/DTD/svg11.dtd">
<svg version="1.1" id="Ebene_1" xmlns="http://www.w3.org/2000/svg" xmlns:xlink="http://www.w3.org/1999/xlink" x="0px" y="0px"
	 width="81.928px" height="70.953px" viewBox="0 0 81.928 70.953" enable-background="new 0 0 81.928 70.953" xml:space="preserve">
<path fill="#3CB6AA" d="M52.654,18.462c-1.699,0-3.106,1.408-3.106,3.107c0,1.724,1.407,3.108,3.106,3.108
	c1.724,0,3.106-1.408,3.106-3.108C55.761,19.87,54.353,18.462,52.654,18.462"/>
<path fill="#878787" d="M30.902,40.214c3.423,0,6.215-2.792,6.215-6.215s-2.792-6.215-6.215-6.215s-6.216,2.792-6.216,6.215
	S27.479,40.214,30.902,40.214"/>
<path fill="#3CB6AA" d="M52.654,43.321c-1.699,0-3.106,1.408-3.106,3.107c0,1.724,1.407,3.107,3.106,3.107
	c1.724,0,3.106-1.408,3.106-3.107S54.353,43.321,52.654,43.321"/>
<path fill="#878787" d="M28.645,49.536c-0.341,0-0.681-0.268-0.729-0.607l-0.557-3.713c-0.632-0.195-1.238-0.463-1.82-0.754
	l-2.865,2.161c-0.123,0.121-0.315,0.17-0.486,0.17c-0.193,0-0.363-0.073-0.51-0.194c-0.631-0.582-3.495-3.181-3.495-3.885
	c0-0.17,0.071-0.314,0.17-0.461c0.704-0.923,1.432-1.82,2.136-2.768c-0.34-0.655-0.631-1.311-0.85-1.99l-3.689-0.583
	c-0.34-0.048-0.583-0.364-0.583-0.704v-4.49c0-0.316,0.243-0.681,0.558-0.729l3.764-0.583c0.193-0.631,0.461-1.238,0.775-1.845
	c-0.679-0.971-1.406-1.869-2.184-2.793c-0.097-0.146-0.17-0.315-0.17-0.484c0-0.17,0.049-0.34,0.17-0.486
	c0.485-0.656,3.205-3.593,3.908-3.593c0.193,0,0.363,0.073,0.511,0.17l2.791,2.185c0.606-0.316,1.214-0.559,1.87-0.777
	c0.121-1.214,0.242-2.549,0.557-3.739c0.099-0.34,0.389-0.582,0.729-0.582h4.517c0.338,0,0.678,0.268,0.728,0.607l0.558,3.714
	c0.633,0.194,1.238,0.461,1.821,0.753l2.864-2.161c0.146-0.121,0.315-0.17,0.486-0.17c0.193,0,0.363,0.073,0.51,0.194
	c0.631,0.583,3.496,3.205,3.496,3.885c0,0.169-0.074,0.314-0.17,0.461c-0.705,0.947-1.433,1.821-2.113,2.768
	c0.316,0.655,0.607,1.311,0.826,1.99l1.26,0.19l3.666-6.384c-0.047-0.096-0.102-0.187-0.144-0.288
	c-0.485-0.048-3.616-0.388-3.616-0.753V19.87c0-0.364,3.131-0.704,3.616-0.753c0.194-0.437,0.437-0.873,0.728-1.262
	c-0.219-0.486-1.237-2.938-1.237-3.35c0-0.049,0.024-0.122,0.097-0.17c0.293-0.146,2.889-1.699,3.01-1.699
	c0.316,0,2.138,2.403,2.379,2.767c0.099-0.01,0.195-0.012,0.293-0.02L61.052,0h-40.57L-0.001,35.476l20.396,35.326l12.212-21.266
	H28.645z"/>
<path fill="#3CB6AA" d="M61.446,0h-0.395l-8.834,15.384c0.146-0.013,0.291-0.029,0.437-0.029c0.243,0,0.485,0.024,0.728,0.048
	c0.681-0.947,1.408-1.894,2.234-2.719l0.145-0.048c0.121,0,2.72,1.529,3.012,1.699c0.072,0.048,0.098,0.121,0.098,0.17
	c0,0.437-1.021,2.865-1.24,3.35c0.291,0.389,0.535,0.825,0.729,1.262c0.485,0.049,3.617,0.389,3.617,0.753v3.399
	c0,0.364-3.132,0.704-3.617,0.753c-0.194,0.46-0.438,0.874-0.729,1.262c0.22,0.484,1.24,2.913,1.24,3.35
	c0,0.073-0.025,0.121-0.098,0.17c-0.292,0.17-2.891,1.723-3.012,1.723c-0.314,0-2.137-2.426-2.379-2.791
	c-0.242,0.024-0.484,0.049-0.728,0.049s-0.485-0.024-0.729-0.049c-0.241,0.365-2.062,2.791-2.379,2.791
	c-0.121,0-2.717-1.553-3.01-1.723c-0.072-0.049-0.097-0.121-0.097-0.17c0-0.413,1.019-2.865,1.237-3.35
	c-0.227-0.305-0.416-0.631-0.584-0.975l-3.666,6.385l2.43,0.367c0.34,0.072,0.583,0.389,0.583,0.729v4.491
	c0,0.315-0.243,0.68-0.56,0.728l-3.762,0.583c-0.195,0.632-0.461,1.238-0.777,1.845c0.681,0.972,1.408,1.869,2.186,2.793
	c0.096,0.146,0.17,0.291,0.17,0.484c0,0.17-0.049,0.34-0.17,0.462c-0.486,0.655-3.205,3.617-3.908,3.617
	c-0.195,0-0.365-0.073-0.511-0.17l-2.791-2.185c-0.347,0.18-0.696,0.332-1.052,0.469L34.3,46.588
	c-0.094,0.806-0.213,1.615-0.412,2.366c-0.098,0.34-0.389,0.582-0.727,0.582h-0.555L20.395,70.802l0.087,0.151h40.965l20.482-35.478
	L61.446,0z M61.977,48.128c0,0.364-3.132,0.704-3.617,0.753c-0.194,0.461-0.438,0.873-0.729,1.263c0.22,0.484,1.24,2.912,1.24,3.35
	c0,0.072-0.025,0.122-0.098,0.17c-0.292,0.17-2.891,1.724-3.012,1.724c-0.314,0-2.137-2.428-2.379-2.792
	c-0.242,0.024-0.484,0.049-0.728,0.049s-0.485-0.024-0.729-0.049c-0.241,0.364-2.062,2.792-2.379,2.792
	c-0.121,0-2.717-1.554-3.01-1.724c-0.072-0.048-0.097-0.121-0.097-0.17c0-0.412,1.019-2.865,1.237-3.35
	c-0.291-0.39-0.533-0.802-0.728-1.263c-0.485-0.049-3.618-0.389-3.618-0.753v-3.398c0-0.364,3.133-0.705,3.618-0.752
	c0.194-0.438,0.437-0.875,0.728-1.264c-0.219-0.484-1.237-2.938-1.237-3.35c0-0.049,0.024-0.121,0.097-0.17
	c0.293-0.146,2.889-1.699,3.01-1.699c0.316,0,2.138,2.404,2.379,2.767c0.244-0.023,0.486-0.048,0.729-0.048s0.485,0.024,0.728,0.048
	c0.681-0.946,1.408-1.893,2.234-2.718l0.145-0.049c0.121,0,2.72,1.529,3.012,1.699c0.072,0.049,0.098,0.121,0.098,0.17
	c0,0.437-1.021,2.865-1.24,3.35c0.291,0.389,0.535,0.826,0.729,1.264c0.485,0.047,3.617,0.388,3.617,0.752V48.128z"/>
</svg>
